<svg width="23" height="40" viewBox="0 0 23 40" fill="none" xmlns="http://www.w3.org/2000/svg">
<path d="M14.2116 0.117798L14.1959 8.91858L14.1802 17.7194L13.4572 15.6763V15.6711L12.5195 35.2633C13.4415 37.8616 13.9339 39.2498 13.9392 39.2551C13.9444 39.2603 14.4683 39.2917 15.1021 39.3232C17.0195 39.4175 19.3978 39.6218 21.2051 39.847C21.6241 39.8994 21.9804 39.9256 22.0066 39.9046C22.0328 39.8837 22.038 30.9258 22.0328 19.9929L22.017 0.117798H14.2116Z" fill="#B1060F" stroke="black" stroke-width="0.0523856"/>
<path d="M0.0927734 0.0916647V19.9877C0.0927734 30.9311 0.103251 39.8942 0.118966 39.9099C0.134682 39.9257 0.810455 39.8576 1.62767 39.7685C2.44489 39.6794 3.57118 39.5642 4.1317 39.517C4.99083 39.4437 7.5682 39.2813 7.86156 39.2761C7.95061 39.2761 7.95585 38.8308 7.96633 30.8472L7.98204 22.4184L8.60543 24.1786C8.69972 24.451 8.73116 24.5348 8.82545 24.8019L9.76315 5.21497C9.56409 4.65445 9.66886 4.94781 9.4436 4.3087C8.67877 2.14518 8.02919 0.316922 8.003 0.233105L7.95061 0.0864258H0.0927734V0.0916647Z" fill="#B1060F" stroke="black" stroke-width="0.0523856"/>
<path d="M14.2116 0.117798L14.1959 8.91858L14.1802 17.7194L13.4572 15.6763V15.6711L12.5195 35.2633C13.4415 37.8616 13.9339 39.2498 13.9392 39.2551C13.9444 39.2603 14.4683 39.2917 15.1021 39.3232C17.0195 39.4175 19.3978 39.6218 21.2051 39.847C21.6241 39.8994 21.9804 39.9256 22.0066 39.9046C22.0328 39.8837 22.038 30.9258 22.0328 19.9929L22.017 0.117798H14.2116Z" fill="#B1060F" stroke="black" stroke-width="0.0523856"/>
<path d="M0.0927734 0.0916647V19.9877C0.0927734 30.9311 0.103251 39.8942 0.118966 39.9099C0.134682 39.9257 0.810455 39.8576 1.62767 39.7685C2.44489 39.6794 3.57118 39.5642 4.1317 39.517C4.99083 39.4437 7.5682 39.2813 7.86156 39.2761C7.95061 39.2761 7.95585 38.8308 7.96633 30.8472L7.98204 22.4184L8.60543 24.1786C8.69972 24.451 8.73116 24.5348 8.82545 24.8019L9.76315 5.21497C9.56409 4.65445 9.66886 4.94781 9.4436 4.3087C8.67877 2.14518 8.02919 0.316922 8.003 0.233105L7.95061 0.0864258H0.0927734V0.0916647Z" fill="#B1060F" stroke="black" stroke-width="0.0523856"/>
<path d="M0.0927734 0.0916647V11.2603L7.96109 32.1307C7.96109 31.654 7.96109 31.3921 7.96633 30.8472L7.98204 22.4184L8.60543 24.1786C12.0629 33.9851 13.9226 39.2446 13.933 39.2551C13.9383 39.2604 14.4621 39.2918 15.096 39.3232C17.0133 39.4175 19.3916 39.6218 21.1989 39.8471C21.618 39.8995 21.9742 39.9257 22.0004 39.9047C22.0161 39.889 22.0266 35.4991 22.0266 29.3019L14.2002 6.78654L14.195 8.91863L14.1793 17.7194L13.4563 15.6764C12.7491 13.6805 12.2777 12.3447 9.43312 4.3087C8.66829 2.14518 8.01871 0.316922 7.99252 0.233105L7.94013 0.0864258H0.0927734V0.0916647Z" fill="url(#paint0_radial_1_18)"/>
<path d="M0.0927734 0.0916647L7.9768 22.4341V22.4236L8.60019 24.1838C12.0629 33.9851 13.9226 39.2446 13.933 39.2551C13.9383 39.2604 14.4621 39.2918 15.096 39.3232C17.0133 39.4175 19.3916 39.6218 21.1989 39.8471C21.6128 39.8995 21.9742 39.9257 21.9952 39.9047L14.1793 17.7142V17.7194L13.4563 15.6764C12.7491 13.6805 12.2777 12.3447 9.43312 4.3087C8.66829 2.14518 8.01871 0.316922 7.99252 0.233105L7.94013 0.0864258H4.01645L0.0927734 0.0916647Z" fill="#E50914"/>
<defs>
<radialGradient id="paint0_radial_1_18" cx="0" cy="0" r="1" gradientUnits="userSpaceOnUse" gradientTransform="translate(10.6925 19.7682) rotate(-19.1007) scale(1.44558 52.9533)">
<stop/>
<stop offset="1" stop-opacity="0"/>
</radialGradient>
</defs>
</svg>
